<svg xmlns="http://www.w3.org/2000/svg" viewBox="0 0 466.09 249.94"><title>Sigil: The City of Doors</title><path d="M296.61,71c-0.75-2,1-3.28,3.06-4.43a46,46,0,0,0-5.57-6.85,3.33,3.33,0,0,1,.49-1.27c5.32-4.12,7.18-1.95,13.91-2.3V51.06l0.35-.13V47.56a3.91,3.91,0,0,1-1.09.6c-4.74-.44-10,0.17-14,2.89-1.58-2.63-3.91.35-6,0l-0.2-2.39c-4.4-.57-8.79-0.12-12.52-0.49-0.56-.15-1.08-0.36-1.66-0.48-3.31-.16-4.33,1.48-4.83,3.12,7.19,3.28,11.64,8.7,14.87,13.79,1-.5,3.47-0.82,4.21.49-1,.82-2.48,1-3.71,1.47L288.17,71l2.48-1.64c0.74,0.16,2-.33,2.22.33,0.26,0.49-.24.66-0.48,0.82-2.48,1.47-6,3.77-2.48,5.91l3.42-1.87,3.93-3.48a2.74,2.74,0,0,1-.65-0.06" fill="#201310"/><path d="M10.47,234.83l-0.28-.16-0.67-.41L9,233.9l-0.22-.41v-0.36a51.33,51.33,0,0,1,4.44-11.26l0.23-.15,0.33-.05,0.89,0.05,15.51-3,0.56-.1,0.61,0.1,1.06,0.67L33.48,220l0.5,0.25,0.28,0.36,0.06,0.36c-1.17,9.63,1.28,6.33-6.12,6.58l-0.72.11-0.67.1H26.42l-0.28-.1L26,227.37l-0.11-.25c0.2-.76.17-4.14-0.28-4.74a21.85,21.85,0,0,0-5.67,1.9l-0.17.31-0.33.82-0.17.36-0.33.36-0.39.1-0.89.15-0.28.1-0.16.21,0.06,0.2,0.17,0.21,0.39,0.31,0.28,0.41,0.05,0.26-0.05.26-0.28.2-0.33.26-0.17.25,0.05,0.21,0.17,0.25,0.28,0.41,0.06,0.46-0.39,1.44-0.22,1.49-0.11,1-0.11.87c-0.52,4.77-2.23,7,2.17,9.77,3.48,2.56,7.73,2.57,11.9,2.78l0.28,0.1,0.22,0.31,0.11,0.41-0.06.46-0.17.36-0.33.2-0.44.11-4.17-.31-4.17-.56-1.94-.41-1-.31-0.45-.2c-1.44-.76-1.49,0-2.28-0.93-2.84-1-5.42-3.45-7.45-5.66-1.51-1.82-1.06-2.78.56-4.21L9.74,237l-0.16-.2-0.23-.31v-0.36c0.37-1.18.49-.76,1.17-1.18Z" fill="#201310"/><path d="M39.53,243.16c0.77,0.63,1.58,1.72,2.73,1.44l0.26-.16,0.26-.36,0.1-.46-0.1-1.08v-1.14l0-5.45,0.41-5.45v-0.82l-0.1-.83V228.3l0.26-.51,0.31-.36c0.66-.7.27-1.29-0.31-1.8l-0.05-.41,0.11-.88-0.05-.87-0.05-.36-0.15-.26-0.31-.15-0.31-.05L42,222.9l-0.61.16-1.18.3-0.46.21-0.46.2-0.36.15-0.31-.05-0.26-.2-0.1-.31L38.3,223l0.21-.41a21,21,0,0,1,5.35-3c1.23-.34,4.85-1.22,6-0.51L50,219.3l0.05,0.31-0.26,5.14,0.05,5.14-0.1.36-0.31.31c-1.22,1.24-1.1,1.09-.87,2.68l0.05,0.31,0.21,0.2L49.15,234l0.15,0.41,0.05,0.36-0.05.72-0.2.72V237l0.31,0.77-0.1,5.35,0.1,5.3,0,0.36-0.21.35-0.41.26-0.62.2H46.68l-1.49-.15-0.92-.15-0.47-.16c-1.77-.68-1.57-0.78-3-1.9l-0.46-.62-0.41-.67-0.36-.67L39,243.88l-0.1-.3,0.05-.26,0.36-.25Z" fill="#201310"/><path d="M76.92,225.63l-0.26-.21-0.05-.3,0.05-.26,0.2-.3,0.57-.62,0.36-.41,0.36-.46,0.62-.88,0.15-.41-0.05-.25-0.15-.21-0.26-.1L78,221l-2.16-.16-2.16-.05H73.33l-0.21.05L73,221.1v0.31l-0.82,13.83-0.1.36-0.15.26-0.21.15-0.1.2-0.15.21-0.31.25-0.31.46-0.2.67-0.05.88a2.69,2.69,0,0,0,1.54,2.11l0.05,0.31,0.2,7.2v0.62l-0.2.41-0.31.3-0.31.11H71.17l-2.36-.11-2.42-.35L64,248.71l-2.36-.77-0.72-.2-0.31-.21-0.21-.36v-0.31l0.1-.26,0.31-.2,0.36-.05,0.36,0.15,0.88,0.26,0.82-.05,0.62,0,0.57-.11,1.23-.35,0.26-.11,0.15-.21v-0.25l0.05-10.54,0.05-.93,0.21-.92,0.36-.62,0.21-.31,0.05-.36,0.26-.36,0.2-.36v-0.31l-0.1-.46V230l0.16-.51L67.46,229l-0.1-.36V228.4l0.21-.2,0.31-.21,0.26-.15,0.21-.36,0.05-.36v-0.36l-0.26-.31-0.36-.3-0.67-.26-0.31-.1-0.2-.26-0.05-.31,0.1-3.35-0.1-.67-0.15-.31-0.26-.21H65.82A9.29,9.29,0,0,0,59,223.52l-0.36.46-0.31.41-0.31.46-0.31.52-0.26.67-0.21.72-0.1.31-0.2.26-0.26,0-0.26-.1-0.15-.15-0.05-.31,0.41-3.4L56.87,220l0.05-.46,0.15-.26,0.26-.2,0.31-.1,0.72,0.1,0.77-.1,11-.57,5.5,0.2,5.5,0.62H81.4l0.21,0.16,0.05,0.25c-0.07,2-3.06,4.55-4.58,6Z" fill="#201310"/><path d="M101.65,241.41c0.35,1-.06,1.41.36,1.8l0.31,0.2,0.26,0.41,0.05,0.36-0.15.51v0.93c0.16,2.86,1.13,4.85-2.67,4.11-1.64-.39-1.76-0.83-3.14-1.6a10.86,10.86,0,0,1-3.44-2.78l-0.31-.31-0.36-.41-0.2-.36V244l0.15-.21,0.31,0,0.26,0L94,244.39l0.92,0.46,0.41,0.26,0.51,0.1,0.51,0.05,0.26-.1,0.15-.21V244.7l-0.05-3.86,0.1-3.85,0.05-.46-0.05-.26-0.15-.1-0.26,0-3.08.1-3-.15-0.36-.1-0.46-.26-0.31-.46c-1.14-2.6-.27-7.13-0.77-10.12l-0.15-.78-0.05-.25L88,223.92l-0.26-.05H87.46c-1.9.3-1.69,0.45-3.08,1.65l-0.36.21-0.26-.05-0.26-.16-0.15-.36V224.8l0.15-.31,0.31-.21,0.36-.41,0.31-.41,0.36-.41,0.72-.83,0.46-.36L89,220.28,91.89,219l0.77-.21,0.92,0.06L93.94,219l0.21,0.25,0.1,0.31,0.21,5.09V225l-0.1.31-0.26.15-0.36.26-0.26.2-0.05.15,0.1,0.16,0.21,0.15L94,226.7l0.1,0.52v0.61l-0.26.51-0.21.41,0.05,0.36,0.15,0.51-0.05.57,0.1,0.46,0.21,0.46,0.15,1.08,0.1,1.13v0.3l0.15,0.21,0.2,0.2,0.36,0.05,5.35-.25,5.4,0.1h0.31l0.31-.15,0.2-.26,0.1-.36,0.72-10.07v-0.31l-0.15-.3-0.26-.21A2.92,2.92,0,0,0,104,222l-1.08.46-0.46.2-0.26,0-0.26-.15-0.2-.21-0.05-.35v-0.26l0.21-.3,0.31-.16,3-1.08,2.93-1.18,0.41-.1,0.46,0,0.36,0.2,0.26,0.36,0.15,0.46v3.24c-0.25,3.89-.18,8.29-1,12.09-1.07.69-4.21,0.08-5.71,0.61-0.48,1.06-.06,3-0.1,4.21l-0.05.26-0.31.26-0.26.31-0.15.2-0.26.05h-0.26v0.15Z" fill="#201310"/><path d="M160,231.59c1,0.25.93,0.22,1.22,1.19a3.5,3.5,0,0,1,0,2.57l-0.38.61-0.52.46-0.51.41-1,.72-3.7,2.21a56.63,56.63,0,0,1-9.29,3.86l-0.38.15H145l-0.28-.1-0.51-.26-0.52-.3a17.81,17.81,0,0,1-2.77-2.32,9.52,9.52,0,0,1-2.44-2.93l-0.28-.57-0.28-.56v-0.41l0.23-.62,0-.3v-0.16c-0.48-.33-0.83,0-1.36-0.62l-0.14-.3,0-.31,0.28-.56,0.19-.57,0-.21v-0.15l-0.19-.05-0.23.1-0.61.16-0.28.05-0.23-.05-0.19-.21-0.23-.31-0.1-.46-0.14-.51-0.28-.93-0.14-.46v-0.51l0.09-.36,0.24-.36,2.39-2.47,2.63-2.27,0.8-.61,0.89-.57,1.83-1.08,3.33-1.65,1.69-.67,1.69-.52,0.52-.15,0.28-.15,0.23-.05,0.24,0.15,0.23,0.15,0.56,0.36,0.42,0.41,0.28,0.36c1.59,1.21,3.73,3,4.69,4.78l0.38,0.72,0.75,1.49,0.23,0.72,0.09,0.67v0.51l0.14,0.3c0.89,1.35,1.1.71,0.56,2.42Zm-20.4,14.91a7.57,7.57,0,0,0,1.19-.56,4,4,0,0,0,1-.77,41.24,41.24,0,0,1,5.39.46,8.09,8.09,0,0,0,5.39-.77V244.6a19.05,19.05,0,0,1,3.7-.26v2.93l-0.23.3a4.91,4.91,0,0,0-1,.14,5.19,5.19,0,0,1-.94.13,0.32,0.32,0,0,0-.26-0.26,0.54,0.54,0,0,1-.26-0.57q-0.37,0-1.22-.08a1.56,1.56,0,0,0-1,.08v0.26a11.72,11.72,0,0,1-5.3,1.47,21.24,21.24,0,0,0-5.49,1H140l-0.23-.31v-0.51h-0.23a1.8,1.8,0,0,1-.1-1.18c0.06-.69.1-1.1,0.1-1.24m12.24-20.05c-1,.43-1.26.17-1.88-0.72a11.14,11.14,0,0,0-3.14-2.88l-0.18-.2-0.19-.1-0.24.05-0.56.25-0.52.26a14.63,14.63,0,0,0-3.85,2.52c-0.86.8-1.26,1.13-.75,2.41l0.19,0.31,1.13,2.21,0.89,2.16,0.09,0.57,0,0.57c-0.34,1.86,2.43.93,1.78,3.85-0.1.73,0.84,0.48,1.22,0.46,0.84-.11.91-0.66,1.69,0.21,1.35,2,3-.25,4.46-0.72,1.11-.28,2.62-1.45,3.66-1.91,0.87-.56.2-1.29,0-2.06-0.89-2.18-1.36-3.79-2.91-5.5l-0.37-.57-0.28-.31-0.09-.31,0.09-.25,0.09-.21v-0.16Z" fill="#201310"/><path d="M170.38,218.68l0.38,0.26,0.33,0.2,0.33,0.26,0.28,0.3,0.52,0.61,0.52,0.51,0.56,0.46,0.33,0.1h0.61l0.56,0.06,1.13-.06,1.13-.1,2.2-.41,1.41-.36,1.45-.46,0.33-.21,0.23-.31,0.28-.21,0.28-.05,0.28,0.11,0.28,0.3,0.28,0.36a12.28,12.28,0,0,1,2,2.82l0.28,0.57,0.33,0.87,0.28,0.83,0.47,1.74v0.31l-0.09.25-0.23.21-0.23.05-0.28-.16c-3-4.64-7.32-4.81-12.48-4.27l-0.19.21,0,0.25-0.09,1.64-0.09,1.65c-0.13,1.81-.06.93,1.5,1.23h1.17l2.35-.15,0.84-.11,0.38-.1,0.33-.36,0.37-.57,0.19-.36,0.14-.21,0.24-.1c1.15,0.62,1.14,2.77,1.22,3.86v0.67l-0.1.88-0.14.82-0.33,1.64-0.14.31-0.19.2-0.23.06-0.24-.21-0.09-.31,0-.36,0.14-.56,0.09-.57v-0.57l0-.62-0.19-.57-0.28-.57-0.23-.36-0.33-.25-0.42-.05-2.44.1-2.44.2-0.89.11-0.23.1-0.09.15v0.31l0,2.52,0.09,2.52v0.36l-0.14.41-0.28.46-0.28.41-0.28.62v0.31l0.14,0.26,0.24,0.26,0.28,0.31,0.14,0.26-0.09.25-0.19.2-0.42.41-0.33.51-0.09.41,0.14,0.41,0.14,0.56-0.1.41-0.14.25,0,0.21,0.24,0.15,0.23,0.2,0.14,0.31,0.09,0.36-0.09.51,0,0.51c-0.13,1.13.37,3.68-.28,4.52l-0.23.16h-0.28l-0.47-.1-0.47-.26-1.5-.25-1.41-.31-0.84-.26-0.85-.31-0.84-.36-0.85-.52-0.42-.2-0.33-.31-0.94-1-0.89-1.08-0.24-.3,0-.26,0.09-.25,0.23-.11h0.24l0.38,0.21,0.47,0.36L164,244.8l0.38,0.05,0.33-.05h0.7l0.33-.1,0.33-.26,0.42-.25,0.28-.16c0.81-1.12.41-9.7,0.56-11.77l0.19-.46,0.37-.46,0.28-.41,0-.31-0.09-.2-0.19-.26-0.14-.31,0-.36,0.23-.41,0.19-.46,0.14-.41,0.14-.46,0.14-.46,0.09-.46v-0.26l-0.14-.21-0.24-.1-0.33-.1-0.33-.11-0.23-.26-0.14-.31v-0.41l0-1.08,0-.21-0.14-.15a45.55,45.55,0,0,1-5.72-.51l-0.24-.21-0.09-.31,0-.36,0.14-.31,0.23-.15h0.28l0.66,0.15,1.41-.21a11.64,11.64,0,0,0,6.1-3.19Z" fill="#201310"/><path d="M345.79,234.72l0.24,0.06,0.33,0.2,0.28,0.31,0.19,0.46,0.24,0.41,0.29,0.72,0.14,0.67,0,0.61-0.29.82-0.38.47-0.48.41-0.47.46-0.72.67-0.28.36-0.29.36-0.29.2-0.28.05-0.38-.1-0.62-.05-0.24-.05-0.19.05-0.14.26-0.47.67-0.33.26-0.33.15-0.52.05-0.24.1-0.19.26-0.24.51-0.29.46-0.38.51-0.57.31-4.57,2.32-4.52,1.95-0.33.11-0.29-.05-0.33-.26-0.38-.31c-2-.78-2.25-2.2-4.19-3.49l-0.24-.31-0.67-.77-0.57-.77-1-1.59-0.24-.36,0-.3,0.14-.21,0.24-.15h0.24l0.28,0.2,0.43,0.41,0.29,0.31,0.33,0.2,1.24,0.67,1.24,0.62,0.86,0.2,0.38-.1,0.24-.16,0.19-.26,0-.31,0.38-9.66,0.05-.67,0.28-.62,0.24-.46,0.19-.46v-0.41l-0.24-.36-0.33-.46-0.14-.41,0.09-.36,0.86-2c0.41-1.35-1.25-.1-1.14-1.6l0-.67v-0.2l-0.14-.16h-0.24l-1.43.05-1.38-.05-2.86-.25h-0.28l-0.24-.1-0.19-.26-0.1-.31,0-.26,0.14-.2,0.19-.11h0.24l0.47,0.06c2.33,0.24,8.35-2.85,9.71-4.11l0.24-.31,0.38-.15,0.33,0.05,0.33,0.15,2,1.65,1.9,1.7,0.33,0.35,0.33,0.36,1.86,2.21,1.71,2.22,3.09,4.47,0.62,1,0.24,0.46,0.29,0.46,0.14,0.88v0.31Zm-11.09-11.41-0.76,11.31-0.14.46-0.28.26-0.28.15-0.19.1,0,0.05,0,0.21,0.15,0.25,0,0.31-0.14.31-0.15.21-0.14.25,0,0.21,0.19,0.1,0.29,0.31,0.33,0.51,0.29,1.08,0.15,0.51,0,0.52v0.36l0,0.21,0.1,0.15h0.19l0.24-.1,2.95-1.9,2.91-2.21,0.62-.57c1.4-1.22,1.38-1.85.9-3.6-0.55-2.43-1.4-3.17-2.9-5.3l-1.72-2.11-0.52-.57-0.57-.51-1.24-1-0.19-.15-0.19-.05Z" fill="#201310"/><path d="M375.25,231.59c1,0.25.94,0.21,1.24,1.19a3.46,3.46,0,0,1,0,2.57l-0.38.61-0.52.46-0.53.41-1,.72-3.76,2.21a57.88,57.88,0,0,1-9.42,3.86l-0.38.15h-0.29l-0.28-.1-0.52-.26-0.52-.3a18.22,18.22,0,0,1-2.81-2.32,9.55,9.55,0,0,1-2.47-2.93l-0.29-.57-0.29-.56v-0.41l0.24-.62,0-.3v-0.16c-0.48-.32-0.84,0-1.38-0.62l-0.14-.3,0-.31,0.29-.56,0.19-.57,0-.21v-0.15l-0.19-.05-0.24.1-0.62.16-0.29.05-0.24-.05-0.19-.21-0.24-.31-0.1-.46-0.14-.51-0.29-.93-0.14-.46v-0.51l0.09-.36,0.24-.36,2.43-2.47,2.67-2.27,0.81-.61,0.9-.57,1.86-1.08L362,220l1.71-.67,1.71-.52,0.52-.15,0.28-.15,0.24-.05,0.24,0.15,0.24,0.15,0.57,0.36,0.43,0.41,0.29,0.36c1.59,1.19,3.8,3,4.76,4.78l0.38,0.72,0.76,1.49,0.24,0.72,0.1,0.67v0.51l0.14,0.3,0.24,0.36,0.43,0.46,0.19,0.46,0,0.46-0.19.36,0,0.31Zm-20.7,14.91a7.72,7.72,0,0,0,1.22-.56,4.12,4.12,0,0,0,1-.77,42.52,42.52,0,0,1,5.47.46,8.31,8.31,0,0,0,5.47-.77V244.6a19.65,19.65,0,0,1,3.76-.26v2.93l-0.24.3a5.06,5.06,0,0,0-1,.14,5.35,5.35,0,0,1-1,.13,0.32,0.32,0,0,0-.26-0.26,0.54,0.54,0,0,1-.26-0.57c-0.25,0-.67,0-1.24-0.08a1.61,1.61,0,0,0-1,.08v0.26a12,12,0,0,1-5.38,1.47,21.82,21.82,0,0,0-5.56,1H355l-0.24-.31v-0.51h-0.24a1.79,1.79,0,0,1-.09-1.18c0.06-.69.09-1.1,0.09-1.24M367,226.44c-1,.43-1.28.17-1.9-0.72a11.24,11.24,0,0,0-3.19-2.88l-0.19-.2-0.19-.1-0.24.05-0.57.25-0.53.26a14.83,14.83,0,0,0-3.9,2.52c-0.86.78-1.28,1.13-.76,2.41l0.19,0.31,1.14,2.21,0.91,2.16,0.1,0.57,0,0.57c-0.36,1.86,2.46.92,1.81,3.85-0.1.73,0.86,0.48,1.24,0.46,0.85-.11.93-0.66,1.71,0.21,1.37,2,3-.25,4.52-0.72,1.12-.28,2.66-1.45,3.71-1.91,0.88-.56.21-1.3,0-2.06-0.91-2.18-1.38-3.79-3-5.5l-0.38-.57-0.28-.31-0.1-.31,0.1-.25,0.1-.21v-0.16Z" fill="#201310"/><path d="M403.8,231.59c1,0.25.94,0.21,1.24,1.19a3.47,3.47,0,0,1,0,2.57l-0.38.61-0.52.46-0.52.41-1,.72-3.76,2.21a58.15,58.15,0,0,1-9.42,3.86l-0.38.15h-0.28l-0.29-.1-0.52-.26-0.52-.3a18.16,18.16,0,0,1-2.81-2.32,9.51,9.51,0,0,1-2.47-2.93l-0.29-.57-0.29-.56v-0.41l0.24-.62,0-.3v-0.16c-0.49-.33-0.85,0-1.38-0.62l-0.14-.3,0-.31,0.29-.56,0.19-.57,0-.21v-0.15l-0.19-.05-0.24.1-0.62.16-0.28.05-0.24-.05-0.19-.21-0.24-.31-0.09-.46-0.14-.51-0.29-.93-0.14-.46v-0.51l0.1-.36,0.24-.36,2.43-2.47,2.67-2.27,0.81-.61,0.9-.57,1.86-1.08,3.38-1.65,1.71-.67,1.71-.52,0.53-.15,0.28-.15,0.24-.05,0.24,0.15,0.24,0.15,0.57,0.36,0.43,0.41,0.29,0.36c1.6,1.2,3.78,3,4.76,4.78l0.38,0.72,0.76,1.49,0.24,0.72,0.09,0.67v0.51l0.14,0.3,0.24,0.36,0.43,0.46,0.19,0.46,0,0.46-0.19.36,0,0.31ZM383.1,246.5a7.62,7.62,0,0,0,1.21-.56,4.11,4.11,0,0,0,1-.77,42.56,42.56,0,0,1,5.48.46,8.3,8.3,0,0,0,5.47-.77V244.6a19.66,19.66,0,0,1,3.76-.26v2.93l-0.24.3a5.06,5.06,0,0,0-1,.14,5.36,5.36,0,0,1-1,.13,0.32,0.32,0,0,0-.26-0.26,0.54,0.54,0,0,1-.26-0.57c-0.25,0-.67,0-1.24-0.08a1.61,1.61,0,0,0-1,.08v0.26a12,12,0,0,1-5.38,1.47,21.82,21.82,0,0,0-5.57,1h-0.52l-0.24-.31v-0.51H383.1a1.75,1.75,0,0,1-.09-1.18c0.06-.69.09-1.1,0.09-1.24m12.42-20.05c-1,.43-1.27.17-1.9-0.72a11.32,11.32,0,0,0-3.19-2.88l-0.19-.2-0.19-.1-0.24.05-0.57.25-0.52.26a14.86,14.86,0,0,0-3.9,2.52c-0.87.79-1.28,1.12-.76,2.41l0.19,0.31,1.14,2.21,0.91,2.16,0.09,0.57,0,0.57c-0.35,1.87,2.47.92,1.81,3.85-0.1.73,0.87,0.48,1.24,0.46,0.86-.11.93-0.66,1.71,0.21,1.37,2,3-.26,4.52-0.72,1.12-.28,2.66-1.45,3.71-1.91,0.89-.57.21-1.28,0-2.06-0.91-2.18-1.38-3.79-3-5.5l-0.38-.57-0.29-.31-0.09-.31,0.09-.25,0.1-.21v-0.16Z" fill="#201310"/><path d="M413.8,228.91l-0.24-.15-0.24-.26,0-.35,0.09-.36,0.15-1.18c0-.84.31-3.48-0.1-4.17l-0.19-.06-0.24-.05-1.48.16-0.71.1-0.71.2-0.57.16-0.57.21-0.57.25-0.53.31-0.28.1-0.29-.1c-0.42-.34-0.84-0.81-0.19-1.18,1.65-.7,2.31-1.54,4.28-2.22,1.7-.67,4.79-1.75,6.71-1.64,1.43,0,1.53.37,1.57,1.7l0.14,0.2,0.24,0.1,1.43,0.46,1.47,0.61,1.43,0.67c2.67,1.14,4.29,3,6.52,4.68a11.1,11.1,0,0,1,1.43,1.95l0.33,0.47,0.14,0.46,0.24,0.36,0.1,0.31,0,0.31-0.19.46a6.58,6.58,0,0,1-2.14,2.16l-0.43.56-0.48.46-2.66,1.85-0.19.2-0.09.26,0.09,0.25,4.66,10,0.24,0.41,0.38,0.31,0.43,0.15,0.67,0.16c1,0,1.65-.39,1.48,1l-0.14.3-0.24.21-0.29.1-1.76-.15h-1.71l-3.47.2-0.29-.05-0.24-.15-0.09-.26v-0.31c0.35-2.12,5.32,1.94.57-6.33l-2.19-4-0.33-.57-0.19-.25-0.28-.05-0.24.1-0.38.1-0.53.15-0.38.26-3.24,1.23-0.29.21-0.19.25,0,0.26-0.14,8.23-0.1.41-0.19.31c-0.92.61-2.24,0-3.33-.05-3.33-1-4.35-1.63-5.71-4.88l-0.19-.62v-0.25l0.1-.26,0.24-.1,0.28,0.05,0.29,0.16,0.57,0.2,0.52,0.1,1.1,0.16,0.24,0.05,0.14-.05c0.33-.82.39-6,0.24-7.46l0.1-.56,0.14-.41,0.19-.36,0.19-.62v-0.3l-0.14-.31-0.29-.51-0.14-.57,0.1-.51,0.24-.46v-0.36c-0.52-1.29.4-1.23,0.62-2.36Zm5.61,4,1.28-.61,0.62-.36,0.62-.36,0.24-.1,0.28,0.1,0.19,0.21,0.24,0.05,0.24-.11,0.33-.2,0.24-.2,0.1-.31,0.14-.25,0.24-.16a5.17,5.17,0,0,0,3.24-1.75c0.77-1.11,1.41-.89.14-1.85-0.94-.82-2.7-1.84-3.76-2.62-1-.29-3.22-1.53-4.18-1l-0.1.21v0.25l0.1,1-0.15.72-0.52,1.14,0,0.35,0.09,0.31,0.19,0.2,0.24,0.31,0,0.31,0,0.82-0.29,3.65,0,0.21,0.09,0.15Z" fill="#201310"/><path d="M444.49,227.94c-0.07.91-.15,1.81-1.33,2-1.31.57-.95,1-0.67,2.11l0.14,0.26,0.19,0.05h0.29l0.81-.26,1.85-.36,1.76-.31,1-.1,0.57-.05,0.57-.16,0.72-.2,0.67-.1,0.52,0.05,0.52,0.1,0.34,0.15,0.28,0.26,0.14,0.36,0.19,0.26,0.24,0.05,0.24-.15,0.38-.1,0.28,0.1,0.43,0.31,0.48,0.41,0.19,0.26,0.33,0.1H456l0.53-.15,0.47-.16,0.53-.15,0.43,0.1,1.86,0.88,0.9,0.41,0.9,0.51,0.53,0.31,0.47,0.46,0.29,0.36L463,235.8l0,0.36-5.09,12.39c-0.83,1.68-3.19,1-4.66,1.24l-3.42-.16-0.33-.05-0.34-.25-0.33-.1-0.29.05-0.38.2-0.33.05-2.57-1-2.57-.82-0.48-.11-0.47-.1-0.81-.25-0.48-.16-0.43.05-0.43.15-0.38.25-0.43.21-0.48.41-0.38.56-0.38.51-0.19.3-0.24.26-0.29.1-0.24-.15-0.19-.21,0-.25v-0.46l2.9-8.12,0.1-.36,0.24-.2,0.29-.05,0.28,0.15,0.67,0.46,0.72,0.41,1.43,0.77,0.38,0.31,0.24,0.31,0.38,0.2,0.47,0.2h0.29l0.28-.15,0.24-.31,0.24-.16h0.33l2.81,0.88,2.85,0.62,1.24,0.15L454,244l2.47-.05,0.43-.1,0.33-.2,0.33-.36,0.33-.61,0.33-.72,0.24-.82,0-.31-0.14-.25a7.78,7.78,0,0,0-3.33-1.7l-1.28-.31-1.28-.21-2.52-.26-5.09.1-0.71.15-0.43.11-0.38-.16-0.33-.15-0.28-.36-4.66-10.9-0.09-.41,0-.3,0.24-.26a18.16,18.16,0,0,1,4-3.75,25.06,25.06,0,0,1,6.76-3.45c1.82-.41,2.45.23,3.81,0.52l0.33-.1h0.28l0.34,0.2,0.43,0.41,0.62,0.31,0.33,0.1c1.26-.35-0.25-1.71,2.95-0.41l0.86,0.31,0.81,0.2,0.43,0.1,0.29,0.15,0.14,0.31,0.14,0.41-0.09.46-1.52,3.4-1.33,3.29-0.29.72-0.24.26-0.28.1-0.24-.05c-0.93-.81.45-1.27-0.38-2.78l-0.38-.72-0.33-.36-0.43-.16-0.86-.15-0.85-.1h-0.86l-0.62.15a15.17,15.17,0,0,0-5,2.06c-1.48,1.62-.84.64-2.28,0.41Z" fill="#201310"/><path d="M168.75,170.26c-0.87-21.43-.43-38.63-1.31-59.49L162.21,108c1.64-4.81,4-9.41,6-14,0.75-12.3-3.16-25.76,2.39-36.9,2.83-4.42,8.16-5.39,13.28-5.77-0.22-1,.54-3.07-0.55-3.46-15.67.58-29.6-.39-45.38,0.39,0.87,1.05-.65,2,0.22,3.07,3.49,0.67,7.08,1.06,9.91,3.17,10.67,9.42.87,26.14,8.38,36.71-5.55,13.07-2.07,28,1.09,41.23-5.76,12.49-1.74,28.44-5.55,41.51-2,5.38-8.27,7.31-14,7.69,1.53,1,.33,3.17,1,4.13,7.72-1.15,16.76-.86,24.59-0.29l0.22-2.5c5.44,0.57,11.21,1.82,16.76.67,1.42-.38,3.27-0.77,3.92-1.82a19.93,19.93,0,0,1-6.53-1.35c-4.57-1.63-8.6-5.86-9.14-10.18" fill="#201310"/><path d="M122.67,139.88l0.8-1.51c-2.45-2.39-1-5.59-1.34-8.38-1.11-4.68-2.9-9.57-6.68-12.46a25.27,25.27,0,0,0-9.36-7.87c-0.11-.8.11-1.7-0.89-2.2-0.11-2.69-3.79-2.69-5.79-3.59C90.52,99.08,83.28,92.5,74.82,87.12a2.09,2.09,0,0,0-.95-1.34c0.57-1.27,1.28-2.5,1.81-3.81,0.91-.29.65-1.52,1.56-1.63,2.21-3,6.39-4.84,10.37-5.49a4.85,4.85,0,0,0-1.56-2.1c-0.72-.88-2.09-1.34-2.68-2.51A38.47,38.47,0,0,0,74,65.44a1.24,1.24,0,0,0-1.57-.82c0.72,1.34.52,3,1.44,4.32,0.06,0.64-.33.93,0.26,1.4,0.39,1.11-.46,1.81-1,2.51,0.33,1.05-1.24,1-1,2-1.76,1.34-.78,3.92-2.81,5-1.19.53-1.37,1.47-2,2.33l-4.61-2c-4.27-2.33-8.62-5.83-12-7.63a1.54,1.54,0,0,1-1.9-1.49c-2.78-.3-3.11-3-5.56-3.79-6.12-4-10-8.87-15.82-13-0.22-1.4-1.9-2.49-3.23-3.29-0.55-11,0-24.13,10.47-32.1C41.18,14.15,54.34,5,64.14,7.54c5,0.4,9.46-1.4,14.7.9,1.45,2.89,5.34,4,7.46,6.47,5.35,3,10.24,7.88,15.81,11v1.2c4.12,2.49,3.45,6.68,7.68,9.17,1.22,0.9.45,2.5,1.89,3.3l1.11,7.67c0.45,1,.67,2.69,2.34,2.59-0.78,2.69,3.45,3.79,4.79,5.78h0.89c-0.22-3.78,1.78-7.67-1.89-10.77-0.44-2.29.89-5.58-.55-7.37,1.45-4.69-1.45-9-1.56-13.66-1.45-.49-3.12-0.3-4-1.69s0.45-2.39,1.34-3.09c1.67-4.28-.22-9-1.11-13.15,0-1.7.33-4.59-1.34-5.49A21.74,21.74,0,0,1,106.56,7C104,9.13,100,9,96.76,8.93c-3.11-2.29-7.68-1.29-10.68-3.59-1.67-.31-4.91-2.2-5.35.2,0.33-2.19-2.57-1.8-4-2.79C66.58,0.06,56.34-.14,46,0.06c-1.45.1-.45,0.8-1.11,1.5,2.67,4.68-5,.8-6.12,3.29a0.86,0.86,0,0,1-.56-0.89c-1-.2-1.56.3-2.45,0.39-4.45,0-7.79,3.79-10.13,6.48-0.67-.2-0.89.5-0.78,1-8.13,1.49-9.13,9.77-13.59,14.05-0.22.9,0.33,1.1-.33,1.7-1,.4-1.34,2-1.56,3.09a14.59,14.59,0,0,0-3,8.38c0.89,1.49.56,2.39,1.34,3.89-1.78,3.69-.45,4.76-0.45,8.54-1,1.1.34,3.18-.55,4.29C8.13,59,8.47,63.43,12,65.33c1.9,4,5.9,7.57,9.57,9.76,1.12,2.3,4.12,3.3,5.68,4.79,0.45,0.5,2.11,0,1.56,1.2,7.35,5,15.29,8.47,22,13.35l6,4.25-1.48,2.39c-0.45.88-1.63,1.64-1.83,2.51a6,6,0,0,0-2.35,3.5c0,0.47-1.11.65-.52,1.11a36.11,36.11,0,0,0-2.48,3.91c-2.48,3-6.72,3.8-10,5.37,1,0.7,1.89.75,2.55,1.81,2.35,0.93,4,2.51,6.39,3.5a1.33,1.33,0,0,0,.2.53c1.31,0.18,1.83,1.34,2.94,1.69,1.24-.12,1.89,1.11,3.33,1.28,0.91-.52,1.37.87,2.48,0.41V126c-1-1.64-1.63-3.75-3.13-5.32,0.07-4.09,3.85-7,5.81-10.22,0.46-.93,1.76-1.52,1.24-2.81a7.6,7.6,0,0,1,4-3.27l0.25-.5a9.32,9.32,0,0,1,3.63,3.33c2-.3,2.78,2.69,4.34,2,0.89,3.19,5.13,2.3,6.12,5.49,2.46-.89,1.57,2.2,3.79,1.9l2.9,2.59c0.55,0.9,2.55.5,2.11,2,1.78,0.3,1.45,2.69,3.23,2.39,0.89,1.39,2.56,2,3.23,3.08,1.78,0.6,2,2.49,2.9,3.8,0.22-.4.78-0.1,1.11-0.2a30.26,30.26,0,0,1,2.67,6c1.23,3.19,2.12,6.48,1.34,9.57,0.33,5.08-1.79,9.86-2.12,15-2,.8-1.67,3.09-2.23,4.29-3.34,4.19-5.56,8.77-10.69,11.76-0.66.5-.34,1.8-1.55,1.69-6.35,2.4-14.59,5.19-21.61,4a30.9,30.9,0,0,1-19-4.78c-3.57,1-6.13-1.51-9.36-2.1-0.55-1.59-1.67-2.59-2.34-4.29-3.45-1.4-5.9-4.68-9.13-6.28-2.45-3.7-6.79-7-9.91-10.27a15.72,15.72,0,0,0-5-6.18c-1.23-2.1-.6-1.87-2-3.76,0.78-.7.6-2.71,1.15-3.41-0.45-.69-1.22-0.69-1.78-1-1.11-2.8-1.22-5-1.89-7.88-1.56.4-2.9-.9-4,0.2,1,2.19.34,4.29,0.56,6.48-0.89,3.29,2,6.28,2.11,9.77-0.34,1,2.23,1.5.22,2.19,0.78,0.7-.45,2.19,1.12,2.59-0.33,1.5,1.45,2.69-.33,4.09,2.22,1.3,1.11,3.69,1.33,5.48,1.9,2-.33,5.58,1.9,7.18-0.89.7,0,1.1-.22,2-1.34,2.59,2.67,5.38.22,8.07,1.78,3,1.12,5.28,1.67,8.38,5.24-.29,5.24-5.58,8-8.37,1.12,0.1,1.23-1.1,1.78-1.69,2-2.59,4.9-.1,7.24-0.2,5.23,2.59,10.69,3.38,16.59,5,1.34,1.49,3.79,1.09,5.12,2.19,3.79-.3,6.35,2.39,9.8,2.89,1.45-.29,3.34.6,4.34-0.69,2.23,0.1,5-.5,6.13,1.39,6.68-.5,14.25-0.6,20.6-2.89,3.56-3.39,9.46-1.7,13.36-4.49,0.44-.3.78-0.9,0.22-1.19,2-.3,2.11-1.8,3.46-2.89,6.23,0,8.77-4.78,11.23-9.87,1.89-1.49,1.78-4.18,3.23-6,1.22-7.78,2.79-11,2.45-19.41,0.78-.5.34-2.09,1.78-1.69,1.22-.4-0.58-0.27-1.24-1.28" fill="#201310"/><path d="M466.09,150c-0.58.31-2-.7-2.83,0.16-3,8.88-8.26,16.92-14,24.72-1.67,0,0-1.24-.75-1.86-4.34,1.24-8.51,4.33-13.43,4-2.08-.23-0.91,2.32-1.83,3-3-1.16-8.08.15-10.59-1.85-7.42-.54-5.26-0.46-12.76-0.78l-0.66-.39,1.42-2.93c0.75-8.19-1.25-16.76-1.42-24.64-0.08-4.79,1.5-8.11,2-12.59-2.42-3.24-.34-7.1-1-10.81-0.91-1.16-2.42-1.09-3.58-1.86,0.83-1.46,3.16-1.46,4.25-2.93-0.74-.31-2.33.46-2.83-0.38-1.17-3.09,2-1.78,3.16-3.17V62.83c0.92-3.63,1-7.57,4.67-10.2,2.84-2.47,6.5-.54,9.76-1.7V50.63c-14-1.54-28.51-2.7-43.43-1.16-0.66.77,0.5,1.47-.16,2.24,4.25,1,9.83,2.32,11.83,7,5.92,14.68-2,31.74,3.17,46.57-1,22.78-2.09,43.64-2.42,65.81-0.58,4.17-4.91,7.88-8.75,9.81-1.5.93-3.16-.31-4.67,0.54,0.09,0.61-.17,2.08.25,2.62l59.61-.23c3.58-.08,7.59.15,10.76-0.16l8.42,0.16-0.42-2.78c1.67-5.56-.25-11.82,3.25-16.68a105.52,105.52,0,0,1,3-14.44" fill="#201310"/><path d="M353.34,63.3c0.54-4.32,4.57-8.55,9.14-10.18A19.86,19.86,0,0,1,369,51.77c-0.65-1.06-2.5-1.44-3.92-1.83-5.55-1.16-11.32.09-16.76,0.67l-0.22-2.5c-7.83.58-16.87,0.87-24.59-.29-0.66,1,.54,3.17-1,4.13,5.77,0.39,12.08,2.31,14,7.69,3.81,13.07-.22,29,5.54,41.52-3.15,13.26-6.64,28.16-1.08,41.23-7.51,10.57,2.28,27.29-8.38,36.71-2.83,2.11-6.42,2.49-9.91,3.17-0.87,1.06.66,2-.22,3.08,15.78,0.77,29.71-.19,45.38.38,1.09-.38.33-2.5,0.55-3.46-5.12-.38-10.45-1.34-13.28-5.76-5.55-11.15-1.64-24.6-2.39-36.9-2-4.61-4.36-9.22-6-14l5.23-2.79c0.87-20.85.43-38.05,1.31-59.49" fill="#201310"/><path d="M181.66,201.43c-1.66,2-14.47-.22-22.18,0l-1.08,1c-6.78-1.15-14.17-1-21.25-.88a17.93,17.93,0,0,0-7.53,1.27c-1.26-.26-2.69-1.07-4.58-1.11-1.25.43,1.27,0.88-.62,1.18-7.74-2.24-15.41-.2-24.23-0.64-2.21-.46-23.74,0-28.62,0-1.73.44-4.08,0.4-5,1.38-4.91-2.28-13.53-.23-18.88-0.71,4.26,1.39,3.43.89,7.84,2.15-7.86.45-5.63-1.63-12.72-2.29a136,136,0,0,1-24.86-.63c-5.52-.76-4.85,1.58-9.89.17a18.32,18.32,0,0,0,.53,5c3.77-1.61,16.45,0,20.75-.14,6-1.53,13.54.64,20-1,3.81,2.71,8.65-.39,14,0.5,0.15-.42-0.33-1,0.3-1.32l2.68,0.93,0-1.31,1.11,0c3.92-.33.79,1.23,2.38,2l7.87,0c0.62-.49-1.42-0.81.29-1.17l30.2,0.41,1.56-1.13a6.67,6.67,0,0,1,2.21.25c2.2,0.11,4.41.49,5.66-.36,3,0.72,5.52,1.45,8.82.85,0.62-.56.14-1.59,1.87-1.68,2.08,3,8.66.92,13.23,1.61a17,17,0,0,1-6.18-2.54l0.47-.15c12.31,3.29,25.38,2.51,40.16,2.38,6.46,1.23,5-.66,10.36.31l-0.07-5.27a18.16,18.16,0,0,0-4.55.89" fill="#201310"/><path d="M457.19,201.46c-1.29,2-11.27-.21-17.28,0l-0.85,1c-5.28-1.15-11-1-16.55-.88a11.29,11.29,0,0,0-5.87,1.28c-1-.26-2.1-1.07-3.57-1.11-1,.43,1,0.88-0.48,1.19-6-2.24-12-.2-18.88-0.64-1.72-.46-18.49.05-22.29,0-1.35.44-3.18,0.4-3.91,1.39-3.82-2.28-10.54-.23-14.71-0.71,3.32,1.4,2.67.9,6.11,2.15-6.12.45-4.39-1.62-9.91-2.29a82.73,82.73,0,0,1-19.36-.62c-4.29-.76-3.78,1.57-7.7.17a23.28,23.28,0,0,0,.41,5c2.94-1.61,12.82,0,16.16-.14,4.64-1.54,10.55.64,15.55-1,3,2.71,6.74-.4,10.91.5,0.12-.41-0.26-1,0.23-1.31l2.09,0.93v-1.31l0.86,0c3.06-.33.62,1.23,1.86,2l6.13,0c0.48-.49-1.11-0.81.23-1.17l23.53,0.41,1.21-1.13a4.2,4.2,0,0,1,1.73.25c1.71,0.11,3.43.49,4.4-.35,2.34,0.72,4.3,1.45,6.87.85,0.49-.56.11-1.59,1.46-1.68,1.62,3,6.74.92,10.31,1.61a11.83,11.83,0,0,1-4.81-2.54l0.37-.14c9.59,3.28,19.76,2.51,31.29,2.37,5,1.23,3.9-.65,8.07.3l-0.06-5.27a11.43,11.43,0,0,0-3.54.89" fill="#201310"/><path d="M303.79,248.07c-6.26-.35-6.57-5.42-8.6-8.53,0-11-4.78-20.4-6.48-31.35l-2.82.92c-1.45-1.27,1.59-1.85,1.39-3.12l-0.64-18.21h-1.1a1.59,1.59,0,0,1-2.15-1.73c0.1-1.38,1.39-.11,2.58-0.46,0.93-3.11-2-5.76-2.16-8.88l-7.18,7.9-0.71-.58c1.27-2.88.54-1.33,2.79-4,7.43-5.53,2.36-14,2.34-21.1l-3.26,3.11-0.37-.35c1.14-1.73.54-4.61,4.08-5-0.63-3.55-1.67-7.65-2.49-11.75a112.34,112.34,0,0,1-10.48,6.11,6.85,6.85,0,0,0,1.48,2.06c-4.16,3.46-.45,8.19-0.65,11.88,1.51,0.69-1.42.92,0.25,1.61,1.13,0.23,2.59-.46,3.38.57-5.52,1.73-.46,6.11-0.78,9.11l1.3,13c3.62-2.15,3.28-4.12,7.23-8.5a1.19,1.19,0,0,1,1.13.23c-0.9,2.3-1.47,4.61-3.34,6.69-3.58.11-1.63,1.61-2.92,3.34a1.24,1.24,0,0,1-1.15-.35l-0.66.81c1.74,11.18,3.38,22.71,6.69,33a3.14,3.14,0,0,1-1.75.81c1.4,5,2.4,6.81,2.55,11.31-1.56.92-2.81,0.58-4.54,0.23-7.82,1.73-18.61-2.77-24.4,3.92-0.16-1.5,1.88-2.88,1.1-3.92a20.31,20.31,0,0,1-5.95,5.07c0-2,2.82-3,3.44-4.72H240.29c-3.75,2.3-4.69,8.05-5.16,11.63,4.06-1,7.51-3.23,10.79-5.53l-2.5,5.88c1.56-2.31,5.47-1.27,7.82-2.77,1.41,2.19,3.91,2.19,6.73,2.42,2.34-.92,3.44-2.54,4.54-3.8,1.1,1,.94,2.54,1.56,3.8l3.29-.8c7.35-.23,14.08-0.81,22.21-0.58,4.06,2.65,10.32.69,15,1.15Z" fill="#201310"/><path d="M236.22,236.4c-0.62,2-2.35.46-3.75,0l-4.85,7.24c-0.47,1.61-.94,3.58.31,5.3l2.19-.57c2-2.88,8.6-8.17,6.1-12" fill="#201310"/><path d="M220.61,238.07c-1,.6,0,1.8-1.67,1.8-1.62-7.57,2.36-39.13,4-47.74-0.37-.83-3.54.15-4-0.15-0.86,4.27-6.51,33.28-8.13,37.78,0.93,4.72-3.26,11.89-4.62,14.53s-6.58,4.35-6.58,4.35l12.23-.15c3.07,0.3,7,.08,10.44.15H224c0.23-2.53,4.25-9.05,5.76-10.94-2.77-.5-6.11,1.38-9.14.37" fill="#201310"/><path d="M307.85,85.05c-1.78-3.44-.25-8.67-6.87-9.82l0.77-.32c-0.26-1.8.76-4.75-1.28-5.24-1.27.82-3.31,1.8-4.84,1.31-0.75-2,1-3.27,3.06-4.42-4.57-7-13.72-16-26.17-18.82-3.31-.16-3.82,1.47-4.33,3.11,7.38,3.27,11.94,8.67,15.25,13.75,1-.5,3.56-0.82,4.32.49-1,.82-2.54,1-3.81,1.47L288.28,71l2.54-1.64c0.77,0.16,2-.33,2.28.33,0.26,0.49-.25.66-0.5,0.82-2.55,1.47-6.1,3.76-2.55,5.89l4.33-2.29c1.26,1.47-1.28,2.78-1.78,4.25v32.24l2.29,1.64c-4.32,1.64-1.53,5.24-2.29,7.86-4.93,10.8-9.67,24-26.67,31.11,0.31,1.83.73,3.67,1.22,5.5a59,59,0,0,0,9-3.66l1.87,1.45c0-1.65,4.24-2.67,5-4.12h-0.39c6.38-3,11.49-7,13.06-12,7.63-2.45,2.3-9,9.16-12.11,1-2.45,3.05-5.89.51-7.85,7.38-10,1.78-22.25,2.54-33.39" fill="#201310"/><path d="M246.35,150.92c-0.35-2.26-7.22-.11-7.49-3.41-3.82-2.56-6.6,0-10.26-.11-1.93-1.58,1.65-2.58,2.21-3.83a13.18,13.18,0,0,1-4.48-5c-1.32-2.39-2.83-9.11-8.36-7.1-1.22-.72.58-1.7-0.64-2.42a5,5,0,0,1-2.87,1.42c-1.26-1.44,3.12-2.7,3.79-3.26,1.63-1.37-2-4.6-2.51-5.9-2.23-5.15.82-13.14-2.85-17.68-2.07.12-2.06,1.83-4,2.12-1-1.8,4.7-6.41,6.19-7.66,0.74-1.67.07-4.27,0.11-6,0.08-4.7-.27-8.68,1.37-13.4,1-2.78,4.34-4.77,5.37-6.91,1.81-3.8,1.44-6.45,5.73-9.87,3.78-3,7.41-6.17,11.46-8.95,3.75-2.57,8.42-2.61,11.78-4.23,5.65-2.72,14.61,4.21,17-2.58-5.29-1.07-7.89-2.5-12.73-.12-1.49.52-4.11-1.42-4.62-.71-8.23.48-24.47,2.76-28.76,8.52-2.15,2.89-14,7.52-13.66,11.07a3.68,3.68,0,0,1,2,.41c-1,2.32-4.33,2.64-5.39,5.32-1,2.53-4.4,5.35-4.59,8,2.87-1.11,6.21-1.37,9.06-2.53-0.73,2.33-3.64,4-5.08,6.06-5.54-1.86-5.41-.52-5.74,3.19-0.36,4.1-3.78,3.48-2.39,7.72,0.92,2.83.05,6.39,0.18,9.34,0.16,3.75-1.91,13.26,1.94,16.35a23.92,23.92,0,0,1,3-2.77c2.78-1.93,8-2.91,10.1-5,1.57,1-3.4,5.26-4.21,5.87-2.24,1.68-4.93,3-7.34,4.55-1,1.72,2.11.58,2.86,1.29-4.19,2-.53,1.39-1.94,4.36,2.67,0.67.8,4.66,3.05,5.82,5.41,1.83,5.17,8.07,10.24,10.57,2.43,1.19,6.18.07,6,2.73-0.16,2.47,7,5.52,9.31,6.9a17.65,17.65,0,0,0,8.63,2.78c7.72,0.75,10.6.61,13.5-4.7-0.43-.1-4.65-0.11-5.08-0.21" fill="#201310"/></svg>
